<svg width="670" height="699" viewBox="0 0 670 699" fill="none" xmlns="http://www.w3.org/2000/svg">
<g id="Group 582">
<path id="rightIsland" d="M478.603 60.4997C478.603 52.7038 475.09 16.9183 473.333 0H644V659H132C144.837 651.691 172.214 635.856 179.025 630.983C187.538 624.893 186.727 627.735 194.024 626.517C201.321 625.299 206.185 620.02 212.266 618.396C217.131 617.097 224.833 614.336 228.076 613.118L245.913 595.252L237.805 586.319L251.994 572.92L259.696 581.041L277.127 564.799L279.56 566.423L281.587 564.799L275.101 558.709L277.127 556.678L292.127 543.279L294.154 540.437L284.424 529.474L297.802 517.293L292.127 511.608L299.018 504.705L306.315 512.42C314.017 504.299 314.017 493.742 314.423 492.118C314.747 490.819 315.369 490.765 315.639 490.9C315.639 486.163 317.017 473.441 322.53 460.447C329.422 444.206 339.151 436.085 343.205 429.994C347.259 423.904 353.745 409.693 354.961 401.978C356.177 394.263 359.42 391.421 361.853 388.579C364.285 385.736 365.907 382.488 367.123 382.488C368.339 382.488 367.933 383.706 368.744 384.518C369.393 385.168 370.366 384.247 370.771 383.706C371.312 384.383 373.528 384.031 378.068 377.209C383.743 368.683 393.067 338.636 401.58 321.176C410.093 303.717 430.363 290.317 432.39 287.069C434.011 284.47 439.011 267.85 441.308 259.864L431.173 256.21L433.606 247.277V238.75L437.254 223.321L439.686 224.539L442.524 213.982L437.254 211.952L441.308 201.395L432.39 198.553L441.308 174.19V155.107L428.336 151.452V143.738L441.308 136.835L440.092 116.533C447.254 117.21 462.064 118.157 464.009 116.533C466.442 114.503 478.603 70.2446 478.603 60.4997Z" fill="#003D5F"/>
<path id="leftIsland" fill-rule="evenodd" clip-rule="evenodd" d="M259.359 485.793C258.412 487.691 256.112 491.893 254.489 493.52C252.865 495.147 251.107 496.638 250.43 497.181L247.995 495.96C246.642 496.774 243.774 498.645 243.124 499.621C242.933 499.909 242.786 500.174 242.632 500.454C242.131 501.361 241.546 502.422 239.065 504.908C236.468 507.511 234.736 508.704 234.195 508.975L228.918 506.128C223.777 510.06 210.816 518.899 200.101 522.803C201.399 529.31 205.242 545.036 207.001 552.086L184.677 556.966L180.618 538.665L175.748 539.478L175.342 559H152.612L153.018 539.071L143.277 537.038L136.783 556.153L115.271 548.426L121.765 529.717L117.3 527.277L106.341 543.952L87.6708 531.344L98.6297 515.076L89.2943 506.535L68.1884 522.803L54.3884 504.501L72.6531 490.673L70.2178 486.606L39.7766 499.214L30.0354 476.845L60.4766 465.051L57.6354 452.85L17.0471 456.917C15.4236 453.392 11.7706 445.448 10.1471 441.869C8.79414 441.191 5.9259 439.51 5.27648 438.208C4.46472 436.581 4.46472 434.548 5.27648 432.514C4.60001 429.938 3.24707 424.461 3.24707 423.16C2.16471 422.211 0 419.906 0 418.28C0 416.246 1.62353 413.806 2.4353 412.992V403.638C1.75883 402.554 0.48706 400.059 0.811767 398.758C1.21765 397.131 2.4353 395.504 4.46472 393.877C5.14119 392.115 6.81884 387.858 8.11767 384.93C7.84708 383.71 7.46825 380.944 8.11767 379.642C8.92943 378.016 11.3647 376.795 12.5824 376.389C13.6647 374.762 16.3977 371.102 18.6706 369.475C18.9412 367.984 19.8883 364.757 21.5118 363.781C23.5412 362.561 28.8177 362.154 29.6295 362.154C30.4413 362.154 37.7472 357.274 38.153 356.46C38.5589 355.647 38.9648 352.393 36.9354 349.953L36.6903 349.658C34.2988 346.786 26.353 337.242 25.5707 334.498C24.7589 331.651 27.1942 332.871 28.8177 333.685C29.0451 333.799 29.2804 333.912 29.5203 334.029C30.9937 334.742 32.6412 335.539 33.6883 336.938C34.6624 338.24 35.1766 340.463 35.3119 341.412C39.1001 344.801 47.9754 351.986 53.1707 353.613C54.7943 354.291 58.366 355.647 59.6649 355.647C61.9649 353.749 67.4578 350.034 71.0296 350.36C74.6014 350.685 76.0355 351.037 76.3061 351.173V352.8L77.9296 354.02L77.1178 355.647C77.7943 355.918 79.3908 356.704 80.3649 357.68C85.3708 356.596 97.412 352.556 105.53 345.072C113.647 337.589 117.3 330.567 118.112 327.991C116.083 326.906 111.618 323.273 109.994 317.416H100.253V319.043H104.312V320.67H100.253V323.517H104.312V325.551H100.253V328.804H104.312V330.838H100.253V334.091H104.312V336.125H98.2238V317.416H85.6414V321.89H90.512V323.924H85.6414V326.771H90.512V328.804H85.6414V332.058H90.512V334.091H85.6414V336.938H90.512V338.565H85.6414V342.225H93.3532V344.259H75.0884V342.225H83.612V340.192H77.1178V338.565H83.612V334.905H77.1178V332.465H83.612V329.211H77.1178V326.771H83.2061V323.924H77.1178V321.89H83.2061V317.416H57.6354V321.89H65.3472V323.924H57.6354V327.991H65.3472V330.024H57.6354V335.718H65.3472V337.752H47.0825V335.718H55.606V330.024H47.0825V327.991H55.606V323.924H47.0825V321.89H55.606V317.416H40.9942V315.383H98.2238V297.894H40.9942V295.861H55.606V291.387H47.0825V289.354H55.606V283.66H47.0825V281.626H55.606V276.339H47.0825V273.899H65.3472V276.339H57.6354V281.626H65.3472V283.66H57.6354V289.354H65.3472V291.387H57.6354V295.861H83.2061V291.387H77.1178V289.354H83.2061V286.1H77.1178V283.66H83.2061V280.406H77.1178V278.373H83.2061V275.119H77.1178V272.679H83.2061V271.052H77.1178V269.018H90.512V271.052H86.0473V274.305H90.512V276.339H85.6414V279.186H90.512V281.626H85.6414V284.066H90.512V286.1H85.6414V289.354H90.512V291.387H85.6414V295.861H98.2238V277.966H103.5V280.406H100.253V282.44H103.5V284.473H100.253V286.913H103.5V288.947H100.253V291.387H103.5V293.421H100.253V295.861H109.994C110.671 293.285 113.323 287.483 118.518 284.88C117.165 281.762 112.267 273.736 103.5 266.578C94.7332 259.42 84.4237 256.546 80.3649 256.004C79.012 257.224 75.4943 259.664 72.2472 259.664C68.6182 259.664 64.3403 256.738 61.7343 254.955C61.4256 254.744 61.1404 254.549 60.8825 254.377C56.0119 255.326 44.1601 259.339 35.7177 267.798C27.2754 276.258 24.0824 282.168 23.5412 284.066C23.8118 285.829 24.353 290.004 24.353 292.607C24.353 295.861 19.8883 301.555 17.453 301.555C15.0177 301.555 12.9883 296.268 14.2059 291.387C14.8875 288.655 15.9506 287.707 17.2529 286.546C18.2771 285.633 19.4492 284.588 20.7001 282.44C23.5412 277.559 28.8177 269.018 38.5589 260.477C47.5579 252.587 50.6683 247.474 53.65 242.572C53.8959 242.168 54.141 241.765 54.3884 241.362C57.6354 236.075 57.6354 230.788 57.6354 229.974C57.6354 229.741 57.4346 229.306 57.1675 228.728C56.5045 227.292 55.4333 224.973 56.0119 222.654C56.4567 220.871 58.3639 219.21 60.1309 217.672C61.5886 216.402 62.9508 215.216 63.3178 214.113C63.7174 212.912 63.3301 211.02 62.9307 209.07C62.5187 207.058 62.0939 204.984 62.506 203.539C62.9296 202.053 64.6789 200.568 66.4283 199.083C68.0319 197.721 69.6355 196.359 70.2178 194.998C70.791 193.658 70.3748 191.957 69.9431 190.193C69.4577 188.209 68.9527 186.145 69.8119 184.423C70.682 182.68 72.7177 181.287 74.6072 179.993C76.2436 178.873 77.7704 177.828 78.3355 176.696C78.9055 175.554 78.586 173.698 78.2515 171.755C77.8714 169.548 77.472 167.229 78.3355 165.715C79.2706 164.075 81.5521 162.57 83.6291 161.2C85.1582 160.192 86.5765 159.256 87.2649 158.394C88.024 157.443 87.8071 155.693 87.5683 153.765C87.2964 151.57 86.9961 149.146 88.0767 147.413C89.2475 145.536 91.499 144.336 93.5063 143.266C94.9784 142.481 96.3192 141.766 97.0061 140.906C97.7344 139.994 97.5643 138.263 97.375 136.338C97.1424 133.972 96.8809 131.312 98.2238 129.518C99.4115 127.931 100.985 127.215 102.616 126.473C104.328 125.694 106.104 124.886 107.559 123.011C110.4 119.35 109.183 112.03 107.559 109.183C106.973 108.154 104.797 105.586 101.951 102.227C96.9182 96.2878 89.7895 87.8742 85.6414 81.12C84.5621 79.3626 83.4604 77.6389 82.3922 75.9676C77.0328 67.5824 72.5159 60.5154 75.9002 57.1243C79.1473 53.8706 84.559 56.8531 86.859 58.7511C92.4061 62.9537 104.961 72.7418 110.806 78.273C112.933 80.2857 114.647 81.9538 116.058 83.3273C119.496 86.6722 121.138 88.2708 122.577 88.8474C124.2 89.4981 131.1 88.3051 134.347 87.6273C135.024 87.085 136.539 85.8378 137.189 85.187C137.432 84.9435 137.748 84.2257 138.147 83.3178C139.082 81.194 140.475 78.0295 142.465 77.4596C143.647 77.1212 145.18 77.1348 146.773 77.1489C149.008 77.1687 151.359 77.1895 153.018 76.2395C154.344 75.4801 155.228 73.7459 156.124 71.9883C157.148 69.9807 158.187 67.9425 159.918 67.292C161.71 66.6186 164.12 66.8123 166.261 66.9845C168 67.1242 169.562 67.2498 170.471 66.8853C171.339 66.5372 172.208 65.0718 173.172 63.4455C174.46 61.2715 175.919 58.8097 177.777 58.3444C179.605 57.8864 181.434 58.2021 183.117 58.4928C184.423 58.7183 185.642 58.9288 186.706 58.7511C187.901 58.5517 189.29 56.1022 190.732 53.5617C192.229 50.9222 193.782 48.1845 195.23 47.7701C198.071 46.9566 211.059 46.5499 223.236 47.7701C235.412 48.9902 246.777 51.0238 254.489 53.0573C258.916 54.2246 261.336 55.2578 262.902 55.9263C264.064 56.4224 264.756 56.7177 265.448 56.7177C266.092 56.7177 267.439 55.6288 269.033 54.3407C271.456 52.383 274.448 49.9651 276.407 50.2104C279.654 50.6171 293.454 59.1579 299.948 63.6317C305.143 67.2107 320.242 79.4932 327.142 85.1871C330.254 84.3737 336.964 82.8282 338.913 83.1536C341.348 83.5603 363.672 120.571 365.701 127.078C367.73 133.585 368.948 134.399 370.977 134.805C371.34 134.878 371.833 134.951 372.404 135.035C375.028 135.422 379.313 136.055 380.313 138.059C381.53 140.499 383.154 157.174 383.56 164.902C383.77 168.909 383.435 171.167 383.233 172.525C383.046 173.785 382.974 174.271 383.56 174.663C383.817 174.834 384.364 175.115 385.078 175.482C387.746 176.85 392.746 179.417 393.707 181.983C394.925 185.237 392.083 199.878 390.054 207.606C388.955 211.788 387.976 214.064 387.373 215.466C386.862 216.654 386.621 217.214 386.807 217.773C386.947 218.194 387.666 218.76 388.548 219.454C390.224 220.773 392.489 222.555 392.489 224.687C392.489 227.006 386.512 244.195 381.608 258.298C379.63 263.986 377.826 269.172 376.66 272.679C373.413 282.44 367.73 294.37 365.295 299.115C365.972 302.911 367.243 310.828 366.919 312.129C366.716 312.943 365.295 313.756 363.874 314.57C362.454 315.383 361.033 316.196 360.83 317.01C360.424 318.637 357.583 323.11 354.742 325.144C351.901 327.177 340.13 337.345 337.695 345.073C336.924 347.518 336.235 349.435 335.652 351.053C334.395 354.548 333.636 356.656 333.636 359.714C333.636 364.188 333.23 367.848 331.607 372.729C329.983 377.609 326.736 382.896 325.113 385.336C323.814 387.289 322.407 387.777 321.866 387.777C321.324 390.217 319.674 395.585 317.401 397.538C314.56 399.978 299.136 430.888 297.513 434.141C296.214 436.744 295.618 439.293 295.483 440.242C296.16 441.326 297.107 444.39 295.483 447.969C293.454 452.443 291.018 457.323 289.395 459.764C288.635 460.906 286.361 462.406 284.117 463.886C281.569 465.567 279.058 467.223 278.842 468.305C278.536 469.839 274.993 472.532 272.227 474.635C271.327 475.318 270.51 475.94 269.912 476.439C267.964 478.066 262.065 483.353 259.359 485.793ZM111.618 297.488C112.024 295.183 114.134 289.842 119.33 286.913C119.319 286.92 112.836 295.048 112.836 306.842C112.836 316.278 117.436 323.788 119.736 326.364C117.571 325.415 112.917 321.89 111.618 315.383H100.253V297.488H111.618Z" fill="#003D5F"/>
<path id="ear" d="M329.051 240.843C305.297 296.391 252.351 413.215 230.605 436.12C229.144 437.659 227.674 439.145 226.197 440.577M329.051 240.843C333.459 221.021 334.047 174.037 301.133 144.672C259.992 107.966 218.116 114.573 183.586 132.192C149.056 149.811 139.506 215.882 161.546 240.843C183.586 265.803 185.79 290.763 183.586 321.596C181.382 352.43 164.485 373.719 149.056 389.87C133.628 406.021 124.812 447.132 149.056 461.08C171.997 474.279 200.201 465.786 226.197 440.577M329.051 240.843L667 367.112M659.653 313.521C658.429 312.297 647.605 326.588 614.104 393.541C572.227 477.231 523.739 442.727 468.639 520.544C443.454 556.112 422.985 597.688 408.329 632.865M385.621 696C389.61 682.049 397.334 659.258 408.329 632.865M226.197 440.577C274.886 495.13 379.477 609.961 408.329 632.865M408.329 632.865C421.82 643.632 454.533 666.929 477.455 673.976" stroke="#005F94" stroke-width="15"/>
<path id="houseOlan" d="M426.715 322.588L431.971 334.176L412 346.29L426.715 376.313L450.365 364.198L459.299 380L484 367.359L472.964 346.29L468.759 348.397L450.365 311L426.715 322.588Z" fill="#C7E173" fill-opacity="0.15" stroke="#C7E173" stroke-width="4"/>
</g>
</svg>
