<svg width="50" height="50" viewBox="0 0 50 50" fill="none" xmlns="http://www.w3.org/2000/svg">
<path d="M23.1517 17.4867L21.5129 48.9868M8.54119 49.0143L19.0963 16.1607M19.0963 16.1607L36.7579 21.9435C37.5966 22.2241 38.507 21.773 38.7884 20.9366C38.8767 20.667 38.8932 20.3864 38.838 20.1113C38.3139 15.9296 35.2516 12.5128 31.1576 11.5444C23.1517 9.94324 19.9515 14.7467 19.9515 14.7467L19.0963 16.1717M19.0963 16.1607V16.1717M19.0963 16.1717L3.01813 20.535C2.16291 20.7661 1.2801 20.2654 1.04836 19.4125C0.982153 19.1704 0.971118 18.9173 1.02078 18.6697C1.5008 14.4275 4.58511 10.9391 8.73982 9.94324C13.3966 9.01337 17.8603 9.94324 20.5363 14.0534L19.0963 16.1717ZM0.987671 49.0253H49.0014M28.1892 40.0953C30.8827 40.2134 30.7591 40.3575 32.7431 40.0953C35.7198 39.7018 39.0685 37.4755 39.0685 37.4755C42.0794 39.7645 45.0218 40.8338 49.0069 41.0086L28.1892 40.0953ZM29.4306 11.2913L36.0462 4.63912C36.6752 4.02288 36.6862 3.01598 36.0682 2.38322C35.9358 2.24567 35.7758 2.13562 35.5992 2.05309C32.068 0.330904 27.8636 0.754573 24.7407 3.14253C21.1157 5.86061 21.5405 11.5444 21.5405 11.5444V13.184L29.4306 11.2913ZM11.5041 9.61311L7.34388 5.0958C6.74247 4.45205 6.77558 3.43964 7.42113 2.8399C7.6308 2.64183 7.89564 2.50427 8.18255 2.44375C9.94817 2.10261 11.7414 1.93204 13.5401 1.93755C17.0934 2.26217 20.2605 4.31449 22.0095 7.42874L11.5041 9.61311Z" stroke="#C7E173" stroke-width="2.6692" stroke-linecap="round" stroke-linejoin="round"/>
</svg>
