<svg width="50" height="40" viewBox="0 0 50 40" fill="none" xmlns="http://www.w3.org/2000/svg">
<mask id="path-1-outside-1_122_3136" maskUnits="userSpaceOnUse" x="0.428589" y="-0.285706" width="49" height="41" fill="black">
<rect fill="white" x="0.428589" y="-0.285706" width="49" height="41"/>
<path d="M46.6921 22.4232L48.5714 3.77069L46.985 3.61689C46.1325 3.53181 45.3195 3.78378 44.6283 4.34335C43.9832 4.90293 43.5586 5.67848 43.4731 6.47039L42.7555 13.843C42.67 14.6873 42.9234 15.4989 43.4862 16.1861C44.0491 16.8307 44.8291 17.2529 45.6256 17.3347H46.0404L46.0107 17.7437L45.6454 21.6542H38.5458L37.4432 12.04H32.3777V10.8554C32.3777 7.74335 30.3798 4.93892 27.411 3.87868L27.0884 3.76414L27.174 3.43363C27.2102 3.28965 27.2102 3.12603 27.2102 2.95587C27.2102 1.74182 26.1767 0.714294 24.9556 0.714294C23.7312 0.714294 22.701 1.74182 22.701 2.95587C22.701 3.1293 22.701 3.28965 22.7372 3.43363L22.8228 3.77069L22.4903 3.88195C19.5215 4.88002 17.5302 7.68117 17.5302 10.8554V12.04H12.4614L11.3588 21.6542H4.35794L3.94981 17.3314H4.36453C5.21371 17.2496 5.99048 16.834 6.51053 16.1893C7.0569 15.5087 7.3235 14.6546 7.24122 13.843L6.52369 6.46385C6.44141 5.63267 6.02011 4.85712 5.3717 4.34008C4.72987 3.78705 3.87411 3.52526 3.01505 3.61361L1.42859 3.76742L3.30469 22.3807L3.30798 26.4188L2.05067 39.1712L3.21253 39.2857L4.50277 26.0424H10.8256L10.0389 33.0355L10.3648 33.2417C10.3911 33.258 12.5832 34.5604 16.8916 35.4276L17.1944 35.4898V39.2759H18.3497V35.6894L18.7875 35.7581C20.6076 36.0428 22.622 36.1802 24.9556 36.1802C26.9864 36.1802 29.0369 36.0395 31.2257 35.7548L31.6536 35.6992V39.2759H32.8122V35.4898L33.1117 35.4276C34.0103 35.2411 34.8232 35.048 35.5342 34.8615L35.7185 34.8157C38.0916 34.135 39.3654 33.4249 39.5003 33.3202L39.8723 33.0813L39.0856 26.0883H45.5006L46.8369 39.2857L47.9987 39.1712L46.6953 26.4188V22.4199L46.6921 22.4232ZM3.74903 15.7476L2.7254 5.00437L2.96239 4.76876L3.16645 4.71968C3.75562 4.71968 4.24274 4.87675 4.60809 5.1909C5.0623 5.58031 5.31574 6.07116 5.31574 6.57184L6.03327 13.915C6.09252 14.4321 5.91807 14.972 5.55931 15.3876C5.16763 15.8392 4.67392 16.0879 4.17033 16.0879H3.82474L3.74574 15.7476H3.74903ZM24.9523 1.86617C25.5447 1.86617 26.0483 2.36684 26.0483 2.95587C26.0483 3.39437 25.8146 3.62998 25.7027 3.74451L24.9523 4.49061L24.2051 3.75105C24.0899 3.63652 23.8563 3.40091 23.8563 2.95914C23.8563 2.37011 24.3598 1.86944 24.9556 1.86944L24.9523 1.86617ZM18.6854 10.8586C18.6854 7.81207 20.8709 5.23344 23.8859 4.72622L24.9556 4.57569L26.0121 4.72622C29.0336 5.23671 31.2191 7.81207 31.2191 10.8586V12.0432H18.6854V10.8586ZM11.0263 24.8938H4.46656V22.8093H11.2502L11.0263 24.8938ZM38.3845 32.5185C37.8447 32.7868 36.9232 33.1304 35.7942 33.4936L35.3367 33.6409L34.708 24.8775L33.5495 24.9626L34.2176 33.9518L33.9016 34.0238C31.1599 34.6619 28.1515 34.9858 24.9589 34.9858C21.9802 34.9858 19.1495 34.688 16.3091 34.0728L15.9865 34.0041L16.6546 24.9626L15.4961 24.8775L14.8674 33.7227L14.4198 33.5951C13.0242 33.1991 12.0236 32.7443 11.5431 32.5283L11.2897 32.417L13.5146 13.1984H36.4031L38.6248 32.4039L38.3878 32.5217L38.3845 32.5185ZM45.5828 24.8938H38.9276L38.7038 22.8093H45.5828V24.8938ZM45.7705 15.8719L45.7375 16.1795C45.201 16.1206 44.7337 15.8785 44.3914 15.4792C44.0326 15.0636 43.8614 14.5237 43.9174 14.0034L44.6349 6.63074C44.6942 6.0908 44.9377 5.6294 45.3393 5.2858C45.7573 4.92911 46.2938 4.75894 46.8237 4.81785H47.2417L47.2055 5.23017L46.1523 15.8883L45.7672 15.8719H45.7705Z"/>
</mask>
<path d="M46.6921 22.4232L48.5714 3.77069L46.985 3.61689C46.1325 3.53181 45.3195 3.78378 44.6283 4.34335C43.9832 4.90293 43.5586 5.67848 43.4731 6.47039L42.7555 13.843C42.67 14.6873 42.9234 15.4989 43.4862 16.1861C44.0491 16.8307 44.8291 17.2529 45.6256 17.3347H46.0404L46.0107 17.7437L45.6454 21.6542H38.5458L37.4432 12.04H32.3777V10.8554C32.3777 7.74335 30.3798 4.93892 27.411 3.87868L27.0884 3.76414L27.174 3.43363C27.2102 3.28965 27.2102 3.12603 27.2102 2.95587C27.2102 1.74182 26.1767 0.714294 24.9556 0.714294C23.7312 0.714294 22.701 1.74182 22.701 2.95587C22.701 3.1293 22.701 3.28965 22.7372 3.43363L22.8228 3.77069L22.4903 3.88195C19.5215 4.88002 17.5302 7.68117 17.5302 10.8554V12.04H12.4614L11.3588 21.6542H4.35794L3.94981 17.3314H4.36453C5.21371 17.2496 5.99048 16.834 6.51053 16.1893C7.0569 15.5087 7.3235 14.6546 7.24122 13.843L6.52369 6.46385C6.44141 5.63267 6.02011 4.85712 5.3717 4.34008C4.72987 3.78705 3.87411 3.52526 3.01505 3.61361L1.42859 3.76742L3.30469 22.3807L3.30798 26.4188L2.05067 39.1712L3.21253 39.2857L4.50277 26.0424H10.8256L10.0389 33.0355L10.3648 33.2417C10.3911 33.258 12.5832 34.5604 16.8916 35.4276L17.1944 35.4898V39.2759H18.3497V35.6894L18.7875 35.7581C20.6076 36.0428 22.622 36.1802 24.9556 36.1802C26.9864 36.1802 29.0369 36.0395 31.2257 35.7548L31.6536 35.6992V39.2759H32.8122V35.4898L33.1117 35.4276C34.0103 35.2411 34.8232 35.048 35.5342 34.8615L35.7185 34.8157C38.0916 34.135 39.3654 33.4249 39.5003 33.3202L39.8723 33.0813L39.0856 26.0883H45.5006L46.8369 39.2857L47.9987 39.1712L46.6953 26.4188V22.4199L46.6921 22.4232ZM3.74903 15.7476L2.7254 5.00437L2.96239 4.76876L3.16645 4.71968C3.75562 4.71968 4.24274 4.87675 4.60809 5.1909C5.0623 5.58031 5.31574 6.07116 5.31574 6.57184L6.03327 13.915C6.09252 14.4321 5.91807 14.972 5.55931 15.3876C5.16763 15.8392 4.67392 16.0879 4.17033 16.0879H3.82474L3.74574 15.7476H3.74903ZM24.9523 1.86617C25.5447 1.86617 26.0483 2.36684 26.0483 2.95587C26.0483 3.39437 25.8146 3.62998 25.7027 3.74451L24.9523 4.49061L24.2051 3.75105C24.0899 3.63652 23.8563 3.40091 23.8563 2.95914C23.8563 2.37011 24.3598 1.86944 24.9556 1.86944L24.9523 1.86617ZM18.6854 10.8586C18.6854 7.81207 20.8709 5.23344 23.8859 4.72622L24.9556 4.57569L26.0121 4.72622C29.0336 5.23671 31.2191 7.81207 31.2191 10.8586V12.0432H18.6854V10.8586ZM11.0263 24.8938H4.46656V22.8093H11.2502L11.0263 24.8938ZM38.3845 32.5185C37.8447 32.7868 36.9232 33.1304 35.7942 33.4936L35.3367 33.6409L34.708 24.8775L33.5495 24.9626L34.2176 33.9518L33.9016 34.0238C31.1599 34.6619 28.1515 34.9858 24.9589 34.9858C21.9802 34.9858 19.1495 34.688 16.3091 34.0728L15.9865 34.0041L16.6546 24.9626L15.4961 24.8775L14.8674 33.7227L14.4198 33.5951C13.0242 33.1991 12.0236 32.7443 11.5431 32.5283L11.2897 32.417L13.5146 13.1984H36.4031L38.6248 32.4039L38.3878 32.5217L38.3845 32.5185ZM45.5828 24.8938H38.9276L38.7038 22.8093H45.5828V24.8938ZM45.7705 15.8719L45.7375 16.1795C45.201 16.1206 44.7337 15.8785 44.3914 15.4792C44.0326 15.0636 43.8614 14.5237 43.9174 14.0034L44.6349 6.63074C44.6942 6.0908 44.9377 5.6294 45.3393 5.2858C45.7573 4.92911 46.2938 4.75894 46.8237 4.81785H47.2417L47.2055 5.23017L46.1523 15.8883L45.7672 15.8719H45.7705Z" fill="#C7E173"/>
<path d="M46.6921 22.4232L48.5714 3.77069L46.985 3.61689C46.1325 3.53181 45.3195 3.78378 44.6283 4.34335C43.9832 4.90293 43.5586 5.67848 43.4731 6.47039L42.7555 13.843C42.67 14.6873 42.9234 15.4989 43.4862 16.1861C44.0491 16.8307 44.8291 17.2529 45.6256 17.3347H46.0404L46.0107 17.7437L45.6454 21.6542H38.5458L37.4432 12.04H32.3777V10.8554C32.3777 7.74335 30.3798 4.93892 27.411 3.87868L27.0884 3.76414L27.174 3.43363C27.2102 3.28965 27.2102 3.12603 27.2102 2.95587C27.2102 1.74182 26.1767 0.714294 24.9556 0.714294C23.7312 0.714294 22.701 1.74182 22.701 2.95587C22.701 3.1293 22.701 3.28965 22.7372 3.43363L22.8228 3.77069L22.4903 3.88195C19.5215 4.88002 17.5302 7.68117 17.5302 10.8554V12.04H12.4614L11.3588 21.6542H4.35794L3.94981 17.3314H4.36453C5.21371 17.2496 5.99048 16.834 6.51053 16.1893C7.0569 15.5087 7.3235 14.6546 7.24122 13.843L6.52369 6.46385C6.44141 5.63267 6.02011 4.85712 5.3717 4.34008C4.72987 3.78705 3.87411 3.52526 3.01505 3.61361L1.42859 3.76742L3.30469 22.3807L3.30798 26.4188L2.05067 39.1712L3.21253 39.2857L4.50277 26.0424H10.8256L10.0389 33.0355L10.3648 33.2417C10.3911 33.258 12.5832 34.5604 16.8916 35.4276L17.1944 35.4898V39.2759H18.3497V35.6894L18.7875 35.7581C20.6076 36.0428 22.622 36.1802 24.9556 36.1802C26.9864 36.1802 29.0369 36.0395 31.2257 35.7548L31.6536 35.6992V39.2759H32.8122V35.4898L33.1117 35.4276C34.0103 35.2411 34.8232 35.048 35.5342 34.8615L35.7185 34.8157C38.0916 34.135 39.3654 33.4249 39.5003 33.3202L39.8723 33.0813L39.0856 26.0883H45.5006L46.8369 39.2857L47.9987 39.1712L46.6953 26.4188V22.4199L46.6921 22.4232ZM3.74903 15.7476L2.7254 5.00437L2.96239 4.76876L3.16645 4.71968C3.75562 4.71968 4.24274 4.87675 4.60809 5.1909C5.0623 5.58031 5.31574 6.07116 5.31574 6.57184L6.03327 13.915C6.09252 14.4321 5.91807 14.972 5.55931 15.3876C5.16763 15.8392 4.67392 16.0879 4.17033 16.0879H3.82474L3.74574 15.7476H3.74903ZM24.9523 1.86617C25.5447 1.86617 26.0483 2.36684 26.0483 2.95587C26.0483 3.39437 25.8146 3.62998 25.7027 3.74451L24.9523 4.49061L24.2051 3.75105C24.0899 3.63652 23.8563 3.40091 23.8563 2.95914C23.8563 2.37011 24.3598 1.86944 24.9556 1.86944L24.9523 1.86617ZM18.6854 10.8586C18.6854 7.81207 20.8709 5.23344 23.8859 4.72622L24.9556 4.57569L26.0121 4.72622C29.0336 5.23671 31.2191 7.81207 31.2191 10.8586V12.0432H18.6854V10.8586ZM11.0263 24.8938H4.46656V22.8093H11.2502L11.0263 24.8938ZM38.3845 32.5185C37.8447 32.7868 36.9232 33.1304 35.7942 33.4936L35.3367 33.6409L34.708 24.8775L33.5495 24.9626L34.2176 33.9518L33.9016 34.0238C31.1599 34.6619 28.1515 34.9858 24.9589 34.9858C21.9802 34.9858 19.1495 34.688 16.3091 34.0728L15.9865 34.0041L16.6546 24.9626L15.4961 24.8775L14.8674 33.7227L14.4198 33.5951C13.0242 33.1991 12.0236 32.7443 11.5431 32.5283L11.2897 32.417L13.5146 13.1984H36.4031L38.6248 32.4039L38.3878 32.5217L38.3845 32.5185ZM45.5828 24.8938H38.9276L38.7038 22.8093H45.5828V24.8938ZM45.7705 15.8719L45.7375 16.1795C45.201 16.1206 44.7337 15.8785 44.3914 15.4792C44.0326 15.0636 43.8614 14.5237 43.9174 14.0034L44.6349 6.63074C44.6942 6.0908 44.9377 5.6294 45.3393 5.2858C45.7573 4.92911 46.2938 4.75894 46.8237 4.81785H47.2417L47.2055 5.23017L46.1523 15.8883L45.7672 15.8719H45.7705Z" stroke="#C7E173" mask="url(#path-1-outside-1_122_3136)"/>
</svg>
