<svg width="50" height="44" viewBox="0 0 50 44" fill="none" xmlns="http://www.w3.org/2000/svg">
<path d="M34.7338 12.5336H37.9185M15.6132 12.5336H12.4286M29.9548 4.14325L31.5492 1.38525M20.3966 20.9282L18.8021 23.6862M20.3966 4.14325L18.8021 1.38525M29.9548 20.9282L31.5492 23.6862M1 42.7432C4.50351 43.1785 8.01565 42.0063 10.5582 39.5586C14.1349 43.5189 20.2413 43.8292 24.2016 40.2524C24.4473 40.0326 24.68 39.7999 24.8997 39.5586C28.4722 43.5189 34.5829 43.8292 38.5432 40.2524C38.7888 40.0326 39.0172 39.7999 39.2413 39.5586C41.7838 42.0063 45.296 43.1785 48.7995 42.7432H1ZM1.00431 33.1851C4.50782 33.6203 8.01996 32.4482 10.5625 29.9961C14.1393 33.9564 20.2456 34.2667 24.2059 30.6942C24.4516 30.4745 24.6843 30.2418 24.904 29.9961C28.4765 33.9564 34.5872 34.2667 38.5475 30.6942C38.7931 30.4745 39.0215 30.2418 39.2456 29.9961C41.7881 32.4438 45.3003 33.616 48.8038 33.1851H1.00431ZM25.1757 7.7545C27.8173 7.7545 29.9548 9.89194 29.9548 12.5336C29.9548 15.1752 27.8173 17.3127 25.1757 17.3127C22.534 17.3127 20.3966 15.1709 20.3966 12.5336C20.3966 9.89625 22.5383 7.7545 25.1757 7.7545Z" stroke="#C7E173" stroke-width="2.66664" stroke-linecap="round" stroke-linejoin="round"/>
</svg>
