<svg width="50" height="40" viewBox="0 0 50 40" fill="none" xmlns="http://www.w3.org/2000/svg">
<path d="M30.6568 16.3611H20.2852M1.42859 38.4831C4.88491 38.914 8.3489 37.7531 10.8582 35.3221C14.3834 39.2487 20.4078 39.5579 24.3133 36.0141C24.5533 35.7961 24.783 35.5655 25 35.3221C28.5253 39.2487 34.5521 39.5579 38.4552 36.0141C38.6951 35.7961 38.9249 35.5655 39.1419 35.3221C41.6511 37.7505 45.1151 38.9115 48.5714 38.4831H1.42859ZM4.56838 32.1636V29.0026C4.56838 27.2586 5.97491 25.8441 7.71073 25.8441H46.999C47.8669 25.8467 48.5714 26.5539 48.5689 27.4284C48.5689 27.7301 48.4821 28.0241 48.3213 28.2776L46.1745 31.6313L4.56838 32.1636ZM10.8531 25.8416V19.5221C10.8531 17.7756 9.44655 16.3611 7.71073 16.3611C5.97491 16.3611 4.56838 14.9466 4.56838 13.2026C4.56838 11.4561 5.97491 10.0416 7.71073 10.0416H23.5986C24.492 10.0441 25.3395 10.4269 25.9343 11.0936L39.1367 25.8391L10.8531 25.8416ZM20.2852 10.0416L13.998 2.14285L20.2852 10.0416Z" stroke="#C7E173" stroke-width="2.66665" stroke-linecap="round" stroke-linejoin="round"/>
</svg>
