<?xml version="1.0" encoding="utf-8"?>
<!-- Svg Vector Icons : http://www.onlinewebfonts.com/icon -->
<!DOCTYPE svg PUBLIC "-//W3C//DTD SVG 1.1//EN" "http://www.w3.org/Graphics/SVG/1.1/DTD/svg11.dtd">
<svg version="1.1" xmlns="http://www.w3.org/2000/svg" xmlns:xlink="http://www.w3.org/1999/xlink" x="0px" y="0px" viewBox="0 0 1000 1000" enable-background="new 0 0 1000 1000" xml:space="preserve">
<metadata> Svg Vector Icons : http://www.onlinewebfonts.com/icon </metadata>
<g><path d="M500,10c-203,0-367.5,161.6-367.5,361c0,155.8,224.3,467.7,322.4,596.8c10.6,14,27.3,22.2,45.1,22.2h0c17.8,0,34.5-8.2,45.1-22.2c98.1-129.1,322.4-441,322.4-596.8C867.5,171.6,703,10,500,10z M525.3,883.3c-5.9,8-15.3,12.7-25.3,12.7c-10,0-19.4-4.7-25.3-12.7C304,652.3,199.5,458.5,199.5,371c0-162.8,134.8-295.2,300.5-295.2c165.7,0,300.5,132.4,300.5,295.2C800.5,458.5,696,652.3,525.3,883.3z"/><path d="M500,194.6c-86.3,0-156.3,68.8-156.3,153.6c0,84.8,70,153.6,156.3,153.6c86.3,0,156.3-68.8,156.3-153.6C656.3,263.4,586.3,194.6,500,194.6z M500,436c-49.3,0-89.3-39.4-89.3-87.8c0-48.4,40.1-87.8,89.3-87.8c49.3,0,89.3,39.4,89.3,87.8C589.3,396.6,549.3,436,500,436z"/></g>
</svg>