<svg width="451" height="440" viewBox="0 0 451 440" fill="none" xmlns="http://www.w3.org/2000/svg">
<path d="M-0.935516 258.067C32.7765 258.067 67.0697 258.067 100.782 258.067C99.038 253.999 97.8755 249.93 96.1318 245.861H4.29562C2.5519 249.349 0.808205 253.999 -0.935516 258.067Z" fill="#FBFCFD" fill-opacity="0.03"/>
<path d="M435.573 424.888C426.273 419.075 418.717 411.519 412.323 402.801C400.699 387.107 396.63 374.901 396.63 374.901C391.399 360.37 364.662 295.852 324.556 198.203C346.643 155.192 368.73 111.598 390.818 68.5865C408.255 34.8745 424.53 15.1123 443.71 11.6248C444.873 11.6248 445.454 11.6248 446.617 11.6248C447.198 11.6248 448.36 11.6248 448.942 11.6248C448.942 7.55614 448.942 3.48745 448.942 0C447.198 0 445.454 0 443.71 0H350.131V12.2061C353.037 12.2061 355.943 12.7873 358.849 12.7873C369.312 14.531 376.868 17.4373 381.518 22.6684C381.518 22.6684 386.168 28.4808 386.168 37.7807C386.168 47.6618 355.362 110.436 318.162 184.254C296.075 130.779 270.501 68.5865 242.02 0H177.502C181.571 9.29987 185.058 18.5997 189.127 27.8996C192.614 37.1995 196.683 45.9181 200.17 55.218C227.489 121.48 254.807 187.741 282.125 253.421C280.963 255.746 279.8 258.071 278.638 260.396C258.294 299.339 238.532 337.12 222.257 368.507C190.87 285.39 167.621 224.941 149.021 177.279C132.746 134.848 109.497 74.3989 81.597 0H16.498C25.2166 22.0872 33.3539 44.1744 42.0725 66.2616L-74.1758 383.62C-96.263 428.375 -123 429.538 -123 429.538V440H3.12938V429.538C3.12938 429.538 -43.9512 431.863 -53.251 397.569C-55.576 387.688 -55.576 375.482 -51.5073 359.789L-23.0265 281.902C-16.0516 262.14 -8.49547 242.959 -1.52057 223.197L49.6287 83.6988C67.6472 130.198 85.6657 176.697 103.684 223.197L112.403 245.865C114.147 249.934 115.89 254.584 117.634 258.653L125.771 281.321C146.115 334.214 165.877 386.526 186.22 439.419H202.495C207.145 430.119 211.795 420.819 216.445 411.519C221.095 402.801 225.164 394.082 229.814 385.944C229.814 385.944 229.814 385.945 229.814 385.363C248.413 348.745 267.594 312.127 286.194 275.509C287.357 273.184 288.519 270.859 289.681 268.534C303.631 301.664 317 334.214 330.95 367.345C331.531 369.089 333.275 374.901 335.018 383.038C338.506 402.801 331.531 414.425 322.231 420.819C308.862 430.7 289.681 429.538 289.681 429.538V439.419H450.104V429.538L446.035 428.956C441.967 427.794 438.479 426.631 435.573 424.888Z" fill="#FBFCFD" fill-opacity="0.03"/>
</svg>
