<svg width="66" height="39" viewBox="0 0 66 39" fill="none" xmlns="http://www.w3.org/2000/svg">
<path d="M22.6617 19.4961H43.3309M6.13087 19.4961H2M59.8691 19.4961H64M18.5309 36.9999C16.2474 36.9999 14.4 35.0407 14.4 32.6277V6.37204C14.4 3.95903 16.2474 1.99988 18.5309 1.99988C20.8143 1.99988 22.6617 3.95903 22.6617 6.37204V32.6277C22.6617 35.0407 20.8143 36.9999 18.5309 36.9999ZM10.2691 10.7442C7.9857 10.7442 6.13826 12.7034 6.13826 15.1164V23.8683C6.13826 26.2813 7.9857 28.2404 10.2691 28.2404C12.5526 28.2404 14.4 26.2813 14.4 23.8683V15.1164C14.4 12.7034 12.5526 10.7442 10.2691 10.7442V10.7442ZM47.4691 36.9999C49.7526 36.9999 51.6 35.0407 51.6 32.6277V6.37204C51.6 3.95903 49.7526 1.99988 47.4691 1.99988C45.1857 1.99988 43.3383 3.95903 43.3383 6.37204V32.6277C43.3383 35.0407 45.1931 36.9999 47.4691 36.9999ZM55.7309 10.7442C58.0143 10.7442 59.8617 12.7034 59.8617 15.1164V23.8683C59.8617 26.2813 58.0143 28.2404 55.7309 28.2404C53.4474 28.2404 51.6 26.2813 51.6 23.8683V15.1164C51.6 12.7034 53.4548 10.7442 55.7309 10.7442Z" stroke="#C7E173" stroke-width="4" stroke-linecap="round" stroke-linejoin="round"/>
</svg>
