<svg width="70" height="70" viewBox="0 0 70 70" fill="none" xmlns="http://www.w3.org/2000/svg">
<path d="M2.5802 67.3542V34.1081C2.5802 32.8843 3.54948 31.8912 4.74402 31.8912H41.488M41.488 20.8139L52.6553 3.63134C53.3174 2.61032 54.6553 2.33758 55.6519 3.01593C55.8908 3.17677 56.0956 3.38657 56.2526 3.63134L67.4198 20.8139M11.2218 60.7106H32.8328M28.5119 31.8982V60.7106M15.5427 31.8982V60.7106M43.645 67.3542C42.4505 67.3542 41.488 66.3612 41.488 65.1373V20.8069H67.4266V65.1373C67.4266 66.3612 66.4573 67.3542 65.2628 67.3542H43.645ZM54.4505 31.8982C56.8396 31.8982 58.7713 33.8843 58.7713 36.332C58.7713 38.7796 56.8328 40.7657 54.4505 40.7657C52.0614 40.7657 50.1297 38.7796 50.1297 36.332C50.1297 33.8843 52.0683 31.8982 54.4505 31.8982Z" stroke="#003D5F" stroke-width="4" stroke-linecap="round" stroke-linejoin="round"/>
</svg>
