<svg width="70" height="70" viewBox="0 0 70 70" fill="none" xmlns="http://www.w3.org/2000/svg">
<path d="M2.65698 66.0777C8.91622 68.6038 16.0791 67.2521 20.9829 62.6098C27.6388 68.9029 38.0525 68.9029 44.7085 62.6098C50.9677 68.5262 60.632 68.9251 67.3541 63.5516M50.0971 54.4V11.2899C50.0971 6.52572 53.954 2.67007 58.7256 2.67007C63.4862 2.67007 67.3541 6.52572 67.3541 11.2899M24.2227 54.4V11.2899C24.2227 6.52572 28.0906 2.67007 32.8512 2.67007C37.6117 2.67007 41.4797 6.52572 41.4797 11.2899M24.2227 32.8505H50.0971M24.2227 45.7802H50.0971M24.2227 19.9097H50.0971" stroke="#003D5F" stroke-width="4" stroke-linecap="round" stroke-linejoin="round"/>
</svg>
