<svg width="25" height="25" viewBox="0 0 25 25" fill="none" xmlns="http://www.w3.org/2000/svg">
<path d="M2.08301 19.7916V13.151C2.08301 12.717 2.16981 12.309 2.34342 11.9271C2.51704 11.5451 2.77745 11.2326 3.12467 10.9896V7.96873C3.12467 7.18748 3.38943 6.5321 3.91895 6.00258C4.44846 5.47307 5.10384 5.20831 5.88509 5.20831H10.5726C10.9545 5.20831 11.3104 5.29512 11.6403 5.46873C11.9702 5.64234 12.2566 5.87672 12.4997 6.17185C12.7427 5.87672 13.0248 5.64234 13.346 5.46873C13.6672 5.29512 14.0188 5.20831 14.4007 5.20831H19.0882C19.8695 5.20831 20.5292 5.47307 21.0674 6.00258C21.6056 6.5321 21.8747 7.18748 21.8747 7.96873V10.9896C22.2219 11.2326 22.4823 11.5451 22.6559 11.9271C22.8295 12.309 22.9163 12.717 22.9163 13.151V19.7916H21.3538V17.7083H3.64551V19.7916H2.08301ZM13.2809 10.5469H20.3122V7.96873C20.3122 7.62151 20.195 7.33505 19.9606 7.10935C19.7262 6.88366 19.4354 6.77081 19.0882 6.77081H14.3226C14.0275 6.77081 13.7801 6.89234 13.5804 7.1354C13.3808 7.37845 13.2809 7.65623 13.2809 7.96873V10.5469ZM4.68717 10.5469H11.7184V7.96873C11.7184 7.65623 11.6186 7.37845 11.4189 7.1354C11.2193 6.89234 10.9719 6.77081 10.6768 6.77081H5.88509C5.55523 6.77081 5.27311 6.888 5.03874 7.12238C4.80436 7.35675 4.68717 7.63887 4.68717 7.96873V10.5469ZM3.64551 16.1458H21.3538V13.151C21.3538 12.8559 21.254 12.6085 21.0544 12.4088C20.8547 12.2092 20.6073 12.1094 20.3122 12.1094H4.68717C4.39204 12.1094 4.14464 12.2092 3.94499 12.4088C3.74533 12.6085 3.64551 12.8559 3.64551 13.151V16.1458ZM21.3538 16.1458H3.64551H21.3538Z" fill="#003D5F" fill-opacity="0.6"/>
</svg>
