<svg width="21" height="21" viewBox="0 0 21 21" fill="none" xmlns="http://www.w3.org/2000/svg">
<path d="M9.74483 17.9739H11.1771V16.6198C12.2362 16.4982 13.0608 16.1727 13.6511 15.6432C14.2414 15.1137 14.5365 14.4062 14.5365 13.5208C14.5365 12.6354 14.2848 11.9149 13.7813 11.3594C13.2778 10.8038 12.4271 10.2743 11.2292 9.77081C10.2223 9.35415 9.4931 8.98088 9.04171 8.65102C8.59032 8.32116 8.36462 7.87845 8.36462 7.3229C8.36462 6.7847 8.55994 6.35935 8.95056 6.04685C9.34119 5.73435 9.87504 5.5781 10.5521 5.5781C11.073 5.5781 11.5243 5.69963 11.9063 5.94269C12.2882 6.18574 12.6094 6.55033 12.8698 7.03644L14.1198 6.43748C13.8247 5.82984 13.4341 5.35241 12.948 5.00519C12.4618 4.65797 11.8889 4.44963 11.2292 4.38019V3.05206H9.79692V4.38019C8.9115 4.50172 8.21272 4.82724 7.70056 5.35675C7.18841 5.88626 6.93233 6.54165 6.93233 7.3229C6.93233 8.17359 7.19275 8.85067 7.71358 9.35415C8.23442 9.85762 9.01567 10.3264 10.0573 10.7604C11.2205 11.2465 12.0191 11.6849 12.4532 12.0755C12.8872 12.4661 13.1042 12.9479 13.1042 13.5208C13.1042 14.0764 12.8742 14.5234 12.4141 14.862C11.954 15.2005 11.3768 15.3698 10.6823 15.3698C10.0052 15.3698 9.40195 15.1788 8.87244 14.7969C8.34292 14.4149 7.974 13.8941 7.76567 13.2344L6.43754 13.6771C6.80212 14.4757 7.24917 15.105 7.77869 15.5651C8.3082 16.0252 8.96358 16.3594 9.74483 16.5677V17.9739ZM10.5 20.9166C9.07643 20.9166 7.73094 20.6432 6.46358 20.0963C5.19622 19.5495 4.08945 18.8029 3.14327 17.8568C2.19709 16.9106 1.45056 15.8038 0.903686 14.5364C0.356811 13.2691 0.083374 11.9236 0.083374 10.5C0.083374 9.05901 0.356811 7.70484 0.903686 6.43748C1.45056 5.17012 2.19709 4.06769 3.14327 3.13019C4.08945 2.19269 5.19622 1.4505 6.46358 0.903625C7.73094 0.35675 9.07643 0.083313 10.5 0.083313C11.941 0.083313 13.2952 0.35675 14.5625 0.903625C15.8299 1.4505 16.9323 2.19269 17.8698 3.13019C18.8073 4.06769 19.5495 5.17012 20.0964 6.43748C20.6433 7.70484 20.9167 9.05901 20.9167 10.5C20.9167 11.9236 20.6433 13.2691 20.0964 14.5364C19.5495 15.8038 18.8073 16.9106 17.8698 17.8568C16.9323 18.8029 15.8299 19.5495 14.5625 20.0963C13.2952 20.6432 11.941 20.9166 10.5 20.9166ZM10.5 19.3541C12.9653 19.3541 15.0573 18.4904 16.7761 16.763C18.4948 15.0356 19.3542 12.9479 19.3542 10.5C19.3542 8.0347 18.4948 5.94269 16.7761 4.22394C15.0573 2.50519 12.9653 1.64581 10.5 1.64581C8.05212 1.64581 5.96445 2.50519 4.23702 4.22394C2.50959 5.94269 1.64587 8.0347 1.64587 10.5C1.64587 12.9479 2.50959 15.0356 4.23702 16.763C5.96445 18.4904 8.05212 19.3541 10.5 19.3541Z" fill="#C7E173"/>
</svg>
