<svg width="148" height="41" viewBox="0 0 148 41" fill="none" xmlns="http://www.w3.org/2000/svg">
<g clip-path="url(#clip0_178_114)">
<path d="M60.4373 24.5225C63.5041 24.5225 66.6238 24.5225 69.6906 24.5225C69.5319 24.1524 69.4262 23.7822 69.2676 23.4121H60.9131C60.7545 23.7294 60.5959 24.1524 60.4373 24.5225Z" fill="#FBFCFD"/>
<path d="M100.147 39.6983C99.3008 39.1695 98.6135 38.4821 98.0318 37.689C96.9743 36.2613 96.6042 35.1509 96.6042 35.1509C96.1283 33.829 93.696 27.9598 90.0475 19.0766C92.0568 15.1638 94.0661 11.1981 96.0754 7.28527C97.6617 4.21846 99.1422 2.42068 100.887 2.10342C100.993 2.10342 101.046 2.10342 101.152 2.10342C101.204 2.10342 101.31 2.10342 101.363 2.10342C101.363 1.73329 101.363 1.36315 101.363 1.0459C101.204 1.0459 101.046 1.0459 100.887 1.0459H92.3741V2.1563C92.6385 2.1563 92.9029 2.20917 93.1672 2.20917C94.119 2.3678 94.8064 2.63218 95.2294 3.10806C95.2294 3.10806 95.6524 3.63682 95.6524 4.48284C95.6524 5.38173 92.85 11.0923 89.4659 17.8076C87.4566 12.943 85.1301 7.28527 82.5392 1.0459H76.6699C77.04 1.89191 77.3573 2.73793 77.7274 3.58395C78.0447 4.42996 78.4148 5.2231 78.7321 6.06912C81.2172 12.097 83.7024 18.1249 86.1876 24.0998C86.0818 24.3114 85.9761 24.5229 85.8703 24.7344C84.0197 28.2771 82.2219 31.714 80.7414 34.5693C77.8861 27.008 75.771 21.5089 74.079 17.1731C72.5985 13.3131 70.4834 7.81403 67.9454 1.0459H62.0233C62.8164 3.05519 63.5567 5.06448 64.3498 7.07377L59.1151 21.3503L53.7746 35.9441C51.7653 40.0155 49.333 40.1213 49.333 40.1213V41.0731H60.8071V40.1213C60.8071 40.1213 56.5241 40.3328 55.6781 37.2131C55.4666 36.3142 55.4666 35.2038 55.8368 33.7762L58.4277 26.6908C59.0622 24.893 59.7496 23.1481 60.3841 21.3503L65.0372 8.66005C66.6763 12.8901 68.3155 17.1202 69.9547 21.3503L70.7478 23.4125C70.9064 23.7826 71.0651 24.2056 71.2237 24.5757L71.9639 26.6379C73.8146 31.4496 75.6124 36.2085 77.4631 41.0202H78.9436C79.3666 40.1742 79.7896 39.3281 80.2126 38.4821C80.6356 37.689 81.0057 36.8958 81.4288 36.1556C81.4288 36.1556 81.4288 36.1556 81.4288 36.1027C83.1208 32.7715 84.8657 29.4403 86.5577 26.1091C86.6635 25.8976 86.7692 25.6861 86.875 25.4746C88.144 28.4886 89.3602 31.4496 90.6292 34.4636C90.6821 34.6222 90.8407 35.1509 90.9993 35.8912C91.3166 37.689 90.6821 38.7465 89.836 39.3281C88.6199 40.227 86.875 40.1213 86.875 40.1213V41.0202H101.469V40.1213L101.099 40.0684C100.729 39.9627 100.411 39.8569 100.147 39.6983Z" fill="#FBFCFD"/>
<path d="M49.2805 23.3594H0V24.4698H49.2805V23.3594Z" fill="#FBFCFD"/>
<path d="M148 23.3594H101.363V24.4698H148V23.3594Z" fill="#FBFCFD"/>
</g>
<defs>
<clipPath id="clip0_178_114">
<rect width="148" height="39.9743" fill="white" transform="translate(0 0.994141)"/>
</clipPath>
</defs>
</svg>
