<svg width="80" height="22" viewBox="0 0 80 22" fill="none" xmlns="http://www.w3.org/2000/svg">
<g clip-path="url(#clip0_1_3230)">
<path d="M32.6687 12.7816C34.3264 12.7816 36.0128 12.7816 37.6705 12.7816C37.5847 12.5806 37.5276 12.3795 37.4418 12.1785H32.9259C32.8402 12.3508 32.7544 12.5806 32.6687 12.7816Z" fill="#FBFCFD"/>
<path d="M54.1337 21.025C53.6764 20.7378 53.3048 20.3644 52.9904 19.9336C52.4188 19.1581 52.2187 18.5549 52.2187 18.5549C51.9615 17.8368 50.6467 14.6486 48.6746 9.82322C49.7607 7.69774 50.8468 5.54355 51.9329 3.41808C52.7904 1.75216 53.5907 0.775596 54.5338 0.603261C54.591 0.603261 54.6196 0.603261 54.6768 0.603261C54.7053 0.603261 54.7625 0.603261 54.7911 0.603261C54.7911 0.402202 54.7911 0.201144 54.7911 0.0288086C54.7053 0.0288086 54.6196 0.0288086 54.5338 0.0288086H49.9322V0.631983C50.0751 0.631983 50.218 0.660706 50.3609 0.660706C50.8754 0.746874 51.247 0.890487 51.4756 1.14899C51.4756 1.14899 51.7043 1.43622 51.7043 1.89578C51.7043 2.38406 50.1894 5.4861 48.3602 9.13387C47.2741 6.49139 46.0165 3.41808 44.616 0.0288086H41.4435C41.6435 0.48837 41.815 0.947932 42.0151 1.40749C42.1866 1.86706 42.3866 2.29789 42.5581 2.75746C43.9015 6.03183 45.2448 9.30621 46.5881 12.5519C46.531 12.6668 46.4738 12.7816 46.4167 12.8965C45.4163 14.8209 44.4445 16.6879 43.6442 18.2389C42.1008 14.1316 40.9576 11.1445 40.043 8.7892C39.2427 6.69245 38.0994 3.7053 36.7275 0.0288086H33.5263C33.9551 1.12027 34.3552 2.21173 34.7839 3.30318L31.9544 11.0583L29.0676 18.9857C27.9815 21.1974 26.6667 21.2548 26.6667 21.2548V21.7718H32.869V21.2548C32.869 21.2548 30.5539 21.3697 30.0965 19.6751C29.9822 19.1868 29.9822 18.5836 30.1823 17.8081L31.5828 13.9593C31.9258 12.9827 32.2973 12.0349 32.6403 11.0583L35.1555 4.16486C36.0415 6.46267 36.9276 8.76048 37.8136 11.0583L38.2423 12.1785C38.3281 12.3795 38.4138 12.6093 38.4995 12.8104L38.8997 13.9305C39.9 16.5443 40.8718 19.1293 41.8722 21.7431H42.6725C42.9011 21.2835 43.1298 20.824 43.3584 20.3644C43.5871 19.9336 43.7871 19.5027 44.0158 19.1006C44.0158 19.1006 44.0158 19.1006 44.0158 19.0719C44.9304 17.2624 45.8736 15.4528 46.7882 13.6433C46.8454 13.5284 46.9025 13.4135 46.9597 13.2986C47.6457 14.9358 48.303 16.5443 48.989 18.1815C49.0176 18.2677 49.1033 18.5549 49.1891 18.957C49.3606 19.9336 49.0176 20.508 48.5603 20.824C47.9029 21.3123 46.9597 21.2548 46.9597 21.2548V21.7431H54.8482V21.2548L54.6482 21.2261C54.4481 21.1686 54.2766 21.1112 54.1337 21.025Z" fill="#FBFCFD"/>
<path d="M26.6381 12.1497H0V12.7528H26.6381V12.1497Z" fill="#FBFCFD"/>
<path d="M80 12.1497H54.791V12.7528H80V12.1497Z" fill="#FBFCFD"/>
</g>
<defs>
<clipPath id="clip0_1_3230">
<rect width="80" height="21.7143" fill="white"/>
</clipPath>
</defs>
</svg>
