<svg width="25" height="25" viewBox="0 0 25 25" fill="none" xmlns="http://www.w3.org/2000/svg">
<path d="M14.0628 14.0625C13.1948 14.0625 12.4569 13.7587 11.8493 13.1511C11.2416 12.5434 10.9378 11.8056 10.9378 10.9375C10.9378 10.0695 11.2416 9.33162 11.8493 8.72398C12.4569 8.11634 13.1948 7.81252 14.0628 7.81252C14.9309 7.81252 15.6687 8.11634 16.2764 8.72398C16.884 9.33162 17.1878 10.0695 17.1878 10.9375C17.1878 11.8056 16.884 12.5434 16.2764 13.1511C15.6687 13.7587 14.9309 14.0625 14.0628 14.0625ZM5.72949 17.7084C5.29546 17.7084 4.92654 17.5564 4.62272 17.2526C4.3189 16.9488 4.16699 16.5799 4.16699 16.1459V5.72919C4.16699 5.29516 4.3189 4.92624 4.62272 4.62242C4.92654 4.3186 5.29546 4.16669 5.72949 4.16669H22.3962C22.8302 4.16669 23.1991 4.3186 23.5029 4.62242C23.8067 4.92624 23.9587 5.29516 23.9587 5.72919V16.1459C23.9587 16.5799 23.8067 16.9488 23.5029 17.2526C23.1991 17.5564 22.8302 17.7084 22.3962 17.7084H5.72949ZM8.33366 16.1459H19.792C19.792 15.4167 20.0437 14.8004 20.5472 14.2969C21.0507 13.7934 21.667 13.5417 22.3962 13.5417V8.33335C21.667 8.33335 21.0507 8.08162 20.5472 7.57815C20.0437 7.07467 19.792 6.45835 19.792 5.72919H8.33366C8.33366 6.45835 8.08192 7.07467 7.57845 7.57815C7.07498 8.08162 6.45866 8.33335 5.72949 8.33335V13.5417C6.45866 13.5417 7.07498 13.7934 7.57845 14.2969C8.08192 14.8004 8.33366 15.4167 8.33366 16.1459ZM20.8337 20.8334H2.60449C2.17046 20.8334 1.80154 20.6814 1.49772 20.3776C1.1939 20.0738 1.04199 19.7049 1.04199 19.2709V7.29169H2.60449V19.2709H20.8337V20.8334ZM5.72949 16.1459V5.72919V16.1459Z" fill="#003D5F" fill-opacity="0.6"/>
</svg>
