<svg width="20" height="19" viewBox="0 0 20 19" fill="none" xmlns="http://www.w3.org/2000/svg">
<g clip-path="url(#clip0_178_86)">
<path d="M18.5723 1.00577C18.2399 0.970523 17.8786 1.02243 17.5156 1.16593C17.0656 1.34293 10.0144 4.30909 3.44141 7.07609L1.26953 7.99015C0.428531 8.33115 0.00390625 8.88573 0.00390625 9.63273C0.00390625 10.1557 0.22525 10.8651 1.28125 11.2831L4.94727 12.7519C5.26427 13.7029 6.00055 15.911 6.18555 16.498C6.29555 16.846 6.57339 17.7226 7.27539 17.9276C7.41939 17.9766 7.56966 18.0019 7.72266 18.0019C8.16566 18.0019 8.48462 17.7957 8.64062 17.6757L10.9707 15.705L13.8008 18.3222C13.9098 18.4332 14.4867 18.9941 15.2617 18.9941C16.2287 18.9941 16.9622 18.1891 17.1152 17.4101C17.1982 16.9831 19.9277 3.28112 19.9277 3.28312C20.1727 2.18412 19.7322 1.61401 19.4492 1.37101C19.2067 1.16351 18.9046 1.04102 18.5723 1.00577ZM17.9102 3.16593C17.5332 5.05593 15.478 15.3723 15.166 16.8593L11.0293 13.0331L8.22266 15.4101L9 12.3691C9 12.3691 14.3625 6.94091 14.6855 6.62491C14.9455 6.37191 15 6.28323 15 6.19523C15 6.07823 14.9398 5.99405 14.8008 5.99405C14.6758 5.99405 14.506 6.11384 14.416 6.16984C13.2727 6.88265 8.40409 9.65629 6.00781 11.0194L2.53125 9.63077L4.21875 8.92179C8.51775 7.11179 16.1742 3.88793 17.9102 3.16593Z" fill="#F5F1EE"/>
</g>
<defs>
<clipPath id="clip0_178_86">
<rect width="20" height="18" fill="white" transform="translate(0 0.994141)"/>
</clipPath>
</defs>
</svg>
