<svg width="20" height="21" viewBox="0 0 20 21" fill="none" xmlns="http://www.w3.org/2000/svg">
<g clip-path="url(#clip0_178_90)">
<path fill-rule="evenodd" clip-rule="evenodd" d="M9.4744 1.00546C8.35712 1.11981 7.50464 1.31679 6.62596 1.66373C5.39799 2.14861 4.39933 2.79248 3.43497 3.72118C1.59472 5.4933 0.585518 7.72725 0.478401 10.2658C0.409302 11.9041 0.824012 13.6856 1.61014 15.127C1.70447 15.3001 1.78167 15.465 1.78163 15.4935C1.78163 15.5221 1.40668 16.6451 0.948414 17.9891C0.490182 19.3331 0.115234 20.4629 0.115234 20.4996C0.115234 20.5804 0.271569 20.7342 0.353612 20.7342C0.38605 20.7342 1.56519 20.3697 2.97387 19.9241C4.38255 19.4785 5.56002 19.1139 5.59045 19.1139C5.62087 19.1139 5.84452 19.2079 6.08743 19.3228C6.8822 19.6986 7.87164 19.9938 8.83496 20.1425C9.46138 20.2392 10.9599 20.2398 11.5865 20.1436C13.7152 19.8168 15.6211 18.8685 17.11 17.3953C18.0223 16.4927 18.7577 15.3985 19.2349 14.2338C19.5398 13.4896 19.7367 12.7546 19.8859 11.8034C19.9516 11.3846 19.9517 9.89607 19.8861 9.43078C19.5602 7.1193 18.525 5.12164 16.8536 3.57905C15.3922 2.23028 13.6202 1.38928 11.5865 1.07918C11.1968 1.01977 9.80835 0.971321 9.4744 1.00546ZM11.4217 3.08298C13.7001 3.46347 15.667 4.78825 16.8513 6.74003C17.346 7.55538 17.7379 8.66736 17.8674 9.62367C17.9289 10.0777 17.9298 11.1523 17.869 11.5912C17.7662 12.3325 17.4567 13.3328 17.1283 13.9849C16.3722 15.4861 15.0142 16.8006 13.5009 17.4961C12.4908 17.9604 11.5921 18.1743 10.482 18.2147C8.95715 18.2702 7.53475 17.9083 6.24291 17.1363C6.05422 17.0235 5.87544 16.9439 5.81662 16.9464C5.76085 16.9488 5.14845 17.1309 4.45572 17.351C3.76298 17.5712 3.19179 17.7482 3.1864 17.7445C3.18097 17.7408 3.35975 17.1957 3.58363 16.5332C3.80747 15.8708 3.9904 15.282 3.99005 15.2249C3.98966 15.1625 3.88762 14.9674 3.734 14.7353C3.02948 13.6712 2.60861 12.4113 2.52013 11.1017C2.48336 10.5568 2.51548 9.81988 2.59559 9.37292C3.03429 6.92448 4.56318 4.89353 6.80035 3.7873C7.63443 3.3749 8.47129 3.14046 9.57129 3.01103C9.85292 2.97789 11.0776 3.02553 11.4217 3.08298ZM7.1879 6.13104C6.58581 6.22563 6.31562 6.33739 6.03224 6.6091C5.34075 7.27206 5.14198 8.57917 5.56328 9.69335C5.96392 10.753 7.30935 12.4962 8.42494 13.4012C9.50843 14.2802 10.7476 14.8627 12.1678 15.1606C12.5446 15.2396 13.2379 15.2392 13.54 15.1598C14.1179 15.0079 14.8135 14.5097 15.0392 14.086C15.2443 13.701 15.3391 12.8812 15.2078 12.6284C15.1573 12.5314 14.9988 12.44 14.2486 12.0755C13.7543 11.8354 13.2335 11.5934 13.0913 11.5379C12.6166 11.3524 12.4983 11.3965 12.0815 11.9139C11.5841 12.5314 11.4952 12.6328 11.4523 12.6323C11.4302 12.6321 11.2764 12.5729 11.1106 12.5008C10.4771 12.2255 9.59202 11.5452 8.95885 10.847C8.68839 10.5488 8.25364 9.97921 8.25364 9.92312C8.25364 9.90437 8.37204 9.75287 8.51674 9.58645C8.88394 9.16417 9.00788 8.92784 9.00311 8.65922C8.99993 8.48006 8.93494 8.29686 8.58584 7.48259C8.35839 6.95214 8.12637 6.45182 8.07022 6.37076C7.89191 6.11352 7.67481 6.05454 7.1879 6.13104Z" fill="#F5F1EE"/>
</g>
<defs>
<clipPath id="clip0_178_90">
<rect width="20" height="20" fill="white" transform="translate(0 0.994141)"/>
</clipPath>
</defs>
</svg>
